#!OML:ASF H:\Punching\Project 1\Capture day 1\Session 1\female.ASF
:FULLY-SPECIFIED
:DEGREES
1045
root 1.17506 15.2067 3.93342 -21.3322 12.8653 -10.7853
lowerback 12.0505 -1.90444 -0.847877
upperback 4.12762 -2.3801 6.86874
thorax -2.07633 -1.22715 8.07564
lowerneck -8.08867 -1.89139 10.4154
upperneck 47.913 -7.89041 3.84443
head 20.2875 -0.546901 -1.2619
rclavicle -2.41523e-014 -4.45278e-014
rhumerus -15.6746 1.79 -59.138
rradius 128.549
rwrist -17.0606
rhand -31.2738 7.27152
rfingers 7.12502
rthumb -4.54752 -22.6597
lclavicle -2.41523e-014 -4.45278e-014
lhumerus -2.06997 -33.3225 76.7165
lradius 134.092
lwrist -1.89515
lhand -19.6538 -0.00592694
lfingers 7.12502
lthumb 6.67401 29.8689
rfemur -110.006 -14.2153 23.9101
rtibia 109.921
rfoot 9.68848 1.10251
rtoes -24.0722
lfemur 3.74318 -8.0257 -21.5908
ltibia 36.1045
lfoot -15.8723 5.70096
ltoes 18.0415
1046
root 1.18097 15.1988 3.87123 -20.435 12.102 -10.7211
lowerback 11.9237 -1.81793 -0.536295
upperback 3.93655 -2.22585 6.80579
thorax -2.24706 -1.14003 7.80388
lowerneck -8.20361 -1.75363 10.537
upperneck 47.8018 -7.68243 3.7527
head 20.2328 -0.468104 -1.30148
rclavicle 5.38209e-014 1.03368e-014
rhumerus -15.4627 2.06867 -59.4061
rradius 128.597
rwrist -17.031
rhand -31.1739 7.21959
rfingers 7.12502
rthumb -4.45105 -22.7136
lclavicle 5.38209e-014 1.03368e-014
lhumerus -2.03959 -33.0639 76.2111
lradius 134.053
lwrist -2.29281
lhand -20.2813 0.0541874
lfingers 7.12502
lthumb 6.06823 29.9473
rfemur -108.788 -13.8396 24.7088
rtibia 112.924
rfoot 9.31204 1.28329
rtoes -22.5314
lfemur 2.3135 -7.61988 -21.34
ltibia 36.7683
lfoot -16.0443 5.95192
ltoes 18.0932
1047
root 1.18855 15.1941 3.80602 -19.3726 11.3542 -10.678
lowerback 11.6278 -1.75464 -0.214302
upperback 3.69193 -2.10535 6.74948
thorax -2.37474 -1.07128 7.53125
lowerneck -8.28562 -1.60274 10.6607
upperneck 47.6821 -7.4376 3.63903
head 20.162 -0.379212 -1.34531
rclavicle -2.85753e-014 4.69132e-014
rhumerus -15.2452 2.39047 -59.6754
rradius 128.634
rwrist -16.9038
rhand -31.0774 7.24926
rfingers 7.12502
rthumb -4.35792 -22.6859
lclavicle -2.85753e-014 4.69132e-014
lhumerus -2.01829 -32.7491 75.6992
lradius 134.021
lwrist -2.60849
lhand -20.8427 0.17465
lfingers 7.12502
lthumb 5.52623 30.0826
rfemur -107.499 -13.4921 25.4513
rtibia 115.637
rfoot 9.15478 1.49475
rtoes -20.9614
lfemur 0.700922 -7.2392 -21.0691
ltibia 37.4041
lfoot -16.1946 6.21124
ltoes 18.1802
1048
root 1.19771 15.1918 3.73877 -18.154 10.631 -10.6386
lowerback 11.1802 -1.70427 0.111927
upperback 3.39339 -2.00643 6.69005
thorax -2.47076 -1.01443 7.2509
lowerneck -8.35151 -1.44604 10.7793
upperneck 47.5611 -7.17572 3.5172
head 20.087 -0.286133 -1.3888
rclavicle 2.94698e-014 3.26007e-014
rhumerus -15.0422 2.73296 -59.9389
rradius 128.662
rwrist -16.6749
rhand -31.0006 7.32274
rfingers 7.12502
rthumb -4.28372 -22.6139
lclavicle 2.94698e-014 3.26007e-014
lhumerus -2.00267 -32.4059 75.187
lradius 134.008
lwrist -2.81253
lhand -21.3045 0.368899
lfingers 7.12502
lthumb 5.08031 30.288
rfemur -106.148 -13.1728 26.1195
rtibia 118.053
rfoot 9.20012 1.76153
rtoes -19.4811
lfemur -1.07775 -6.89097 -20.8052
ltibia 38.0074
lfoot -16.3178 6.48862
ltoes 18.2911
1049
root 1.20846 15.1911 3.67007 -16.8057 9.93976 -10.5661
lowerback 10.628 -1.66028 0.40662
upperback 3.04082 -1.92367 6.61686
thorax -2.56055 -0.966282 6.97424
lowerneck -8.39527 -1.28605 10.8904
upperneck 47.4432 -6.90148 3.39137
head 20.0098 -0.190253 -1.43004
rclavicle -2.66371e-014 -5.40694e-014
rhumerus -14.8686 3.09556 -60.1922
rradius 128.684
rwrist -16.3692
rhand -30.9459 7.41896
rfingers 7.12502
rthumb -4.23086 -22.5188
lclavicle -2.66371e-014 -5.40694e-014
lhumerus -2.02097 -32.0403 74.6948
lradius 134.033
lwrist -2.87745
lhand -21.6238 0.640337
lfingers 7.12502
lthumb 4.77207 30.5666
rfemur -104.74 -12.8865 26.6725
rtibia 120.182
rfoot 9.41494 2.12815
rtoes -18.1714
lfemur -2.98068 -6.57788 -20.5974
ltibia 38.5646
lfoot -16.4004 6.79365
ltoes 18.4221
1050
root 1.22076 15.1915 3.60056 -15.3703 9.25851 -10.4413
lowerback 10.0129 -1.60777 0.661241
upperback 2.64999 -1.83759 6.51753
thorax -2.65267 -0.917101 6.6923
lowerneck -8.42282 -1.12765 11.0116
upperneck 47.3265 -6.62922 3.26373
head 19.9303 -0.0936666 -1.47358
rclavicle 1.62506e-014 2.3059e-014
rhumerus -14.7364 3.45336 -60.4429
rradius 128.701
rwrist -16.0184
rhand -30.9067 7.53603
rfingers 7.12502
rthumb -4.19308 -22.4024
lclavicle 1.62506e-014 2.3059e-014
lhumerus -2.05819 -31.6742 74.2077
lradius 134.094
lwrist -2.82538
lhand -21.8196 0.972386
lfingers 7.12502
lthumb 4.583 30.9028
rfemur -103.237 -12.6024 27.08
rtibia 122.024
rfoot 9.74011 2.56757
rtoes -16.9571
lfemur -4.94985 -6.2802 -20.4645
ltibia 39.064
lfoot -16.4366 7.12848
ltoes 18.5794
1051
root 1.23437 15.1926 3.53073 -13.9018 8.56445 -10.2327
lowerback 9.39898 -1.53955 0.839422
upperback 2.24046 -1.74003 6.38827
thorax -2.7616 -0.862668 6.42367
lowerneck -8.44908 -0.965881 11.135
upperneck 47.2138 -6.35184 3.13332
head 19.8553 0.0054386 -1.5177
rclavicle -1.09332e-015 -4.69132e-014
rhumerus -14.6284 3.81346 -60.688
rradius 128.715
rwrist -15.6642
rhand -30.8886 7.68197
rfingers 7.12502
rthumb -4.1756 -22.2569
lclavicle -1.09332e-015 -4.69132e-014
lhumerus -2.1114 -31.303 73.7274
lradius 134.186
lwrist -2.70752
lhand -21.9332 1.33897
lfingers 7.12502
lthumb 4.4733 31.2717
rfemur -101.597 -12.2923 27.2949
rtibia 123.587
rfoot 10.1255 3.07741
rtoes -15.7641
lfemur -6.91197 -5.98034 -20.4415
ltibia 39.4928
lfoot -16.4208 7.50025
ltoes 18.7493
1052
root 1.24892 15.1945 3.46131 -12.4271 7.85284 -9.94519
lowerback 8.80248 -1.4561 0.941494
upperback 1.82237 -1.63032 6.22724
thorax -2.88609 -0.802529 6.16662
lowerneck -8.48038 -0.801692 11.2685
upperneck 47.1009 -6.07381 3.00005
head 19.7834 0.106528 -1.56477
rclavicle -1.48592e-014 2.3059e-014
rhumerus -14.5437 4.16733 -60.9343
rradius 128.731
rwrist -15.3473
rhand -30.8614 7.80052
rfingers 7.12502
rthumb -4.14926 -22.1388
lclavicle -1.48592e-014 2.3059e-014
lhumerus -2.17824 -30.9317 73.2445
lradius 134.3
lwrist -2.56473
lhand -21.9991 1.71506
lfingers 7.12502
lthumb 4.40961 31.6492
rfemur -99.8103 -11.9494 27.3167
rtibia 124.88
rfoot 10.5371 3.62155
rtoes -14.5741
lfemur -8.8378 -5.67659 -20.5209
ltibia 39.8491
lfoot -16.3553 7.8979
ltoes 18.9423
1053
root 1.26401 15.1968 3.39238 -10.9679 7.10475 -9.58935
lowerback 8.21847 -1.35538 0.973177
upperback 1.41106 -1.50506 6.04107
thorax -3.00794 -0.735104 5.92399
lowerneck -8.50097 -0.632448 11.4105
upperneck 46.9665 -5.78439 2.86381
head 19.6954 0.211537 -1.61255
rclavicle 2.16675e-014 5.08889e-014
rhumerus -14.4576 4.5091 -61.181
rradius 128.745
rwrist -15.1024
rhand -30.8318 7.92045
rfingers 7.12502
rthumb -4.12076 -22.0194
lclavicle 2.16675e-014 5.08889e-014
lhumerus -2.27463 -30.561 72.7747
lradius 134.427
lwrist -2.45138
lhand -22.0637 1.99821
lfingers 7.12502
lthumb 4.34728 31.9336
rfemur -97.873 -11.547 27.1562
rtibia 125.906
rfoot 10.9173 4.11669
rtoes -13.207
lfemur -10.7086 -5.35035 -20.6857
ltibia 40.1365
lfoot -16.2458 8.30993
ltoes 19.1474
1054
root 1.27896 15.2001 3.3247 -9.54344 6.30682 -9.20886
lowerback 7.65664 -1.24221 0.959549
upperback 1.01744 -1.36725 5.84494
thorax -3.12151 -0.661894 5.69808
lowerneck -8.54163 -0.455602 11.558
upperneck 46.8227 -5.48548 2.72159
head 19.6089 0.320325 -1.66284
rclavicle -4.2689e-014 -3.18055e-015
rhumerus -14.3603 4.84928 -61.4251
rradius 128.761
rwrist -14.949
rhand -30.7951 8.00845
rfingers 7.12502
rthumb -4.08532 -21.9321
lclavicle -4.2689e-014 -3.18055e-015
lhumerus -2.35622 -30.1701 72.2875
lradius 134.558
lwrist -2.36095
lhand -22.1226 2.26179
lfingers 7.12502
lthumb 4.29041 32.1983
rfemur -95.7805 -11.0548 26.8675
rtibia 126.655
rfoot 11.2529 4.51323
rtoes -11.789
lfemur -12.4723 -4.99957 -20.8843
ltibia 40.2743
lfoot -16.0559 8.72854
ltoes 19.3531
1055
root 1.29332 15.2038 3.25776 -8.16024 5.46695 -8.81564
lowerback 7.1271 -1.11896 0.912756
upperback 0.62984 -1.21737 5.6413
thorax -3.24517 -0.582646 5.48521
lowerneck -8.56682 -0.275127 11.7116
upperneck 46.6593 -5.1753 2.57363
head 19.5068 0.432362 -1.71463
rclavicle -3.08862e-014 -3.10104e-014
rhumerus -14.2643 5.18949 -61.6668
rradius 128.778
rwrist -14.8906
rhand -30.7474 8.06115
rfingers 7.12502
rthumb -4.03918 -21.8803
lclavicle -3.08862e-014 -3.10104e-014
lhumerus -2.4613 -29.7774 71.8053
lradius 134.703
lwrist -2.28983
lhand -22.1811 2.43107
lfingers 7.12502
lthumb 4.23386 32.3687
rfemur -93.5462 -10.4723 26.4717
rtibia 127.144
rfoot 11.5106 4.75843
rtoes -10.343
lfemur -14.1767 -4.62331 -21.1048
ltibia 40.3718
lfoot -15.8488 9.14302
ltoes 19.5613
